<svg width="50" height="50" viewBox="0 0 50 50" fill="none" xmlns="http://www.w3.org/2000/svg">
<path d="M15 10V10C18.866 10 22 13.134 22 17V40V40C18.134 40 15 36.866 15 33V10Z" fill="#212121"/>
<path d="M23 14V14C26.3137 14 29 16.6863 29 20V40V40C25.6863 40 23 37.3137 23 34V14Z" fill="#212121"/>
<path d="M30 18V18C33.3137 18 36 20.6863 36 24V40V40C32.6863 40 30 37.3137 30 34V18Z" fill="#212121"/>
<path d="M15 10V10C18.866 10 22 13.134 22 17V40V40C18.134 40 15 36.866 15 33V10Z" fill="#C4C4C4"/>
<path d="M23 14V14C26.3137 14 29 16.6863 29 20V40V40C25.6863 40 23 37.3137 23 34V14Z" fill="#C3C3C3"/>
<path d="M30 18V18C33.3137 18 36 20.6863 36 24V40V40C32.6863 40 30 37.3137 30 34V18Z" fill="#C3C3C3"/>
</svg>
